Run_40002
nRows=4
nColumns=164

# SIMM Motion File Header:
name Run_40002
datacolumns 164
datarows 4
otherdata 1
range 4.16000000 4.19000000
endheader
time	pelvis_tilt	pelvis_list	pelvis_rotation	pelvis_tx	pelvis_ty	pelvis_tz	hip_flexion_r	hip_adduction_r	hip_rotation_r	knee_angle_r	ankle_angle_r	hip_flexion_l	hip_adduction_l	hip_rotation_l	knee_angle_l	ankle_angle_l	lumbar_extension	lumbar_bending	lumbar_rotation	arm_flex_r	arm_add_r	arm_rot_r	elbow_flex_r	pro_sup_r	arm_flex_l	arm_add_l	arm_rot_l	elbow_flex_l	pro_sup_l	subtalar_angle_r	mtp_angle_r	subtalar_angle_l	mtp_angle_l	wrist_flex_r	wrist_dev_r	wrist_flex_l	wrist_dev_l	LASI_tx	LASI_ty	LASI_tz	RASI_tx	RASI_ty	RASI_tz	LPSI_tx	LPSI_ty	LPSI_tz	RPSI_tx	RPSI_ty	RPSI_tz	RTH1_tx	RTH1_ty	RTH1_tz	RTH2_tx	RTH2_ty	RTH2_tz	RTH3_tx	RTH3_ty	RTH3_tz	LTH1_tx	LTH1_ty	LTH1_tz	LTH2_tx	LTH2_ty	LTH2_tz	LTH3_tx	LTH3_ty	LTH3_tz	RTB1_tx	RTB1_ty	RTB1_tz	RTB2_tx	RTB2_ty	RTB2_tz	RTB3_tx	RTB3_ty	RTB3_tz	LTB1_tx	LTB1_ty	LTB1_tz	LTB2_tx	LTB2_ty	LTB2_tz	LTB3_tx	LTB3_ty	LTB3_tz	RCAL_tx	RCAL_ty	RCAL_tz	RTOE_tx	RTOE_ty	RTOE_tz	RMT5_tx	RMT5_ty	RMT5_tz	LCAL_tx	LCAL_ty	LCAL_tz	LTOE_tx	LTOE_ty	LTOE_tz	LMT5_tx	LMT5_ty	LMT5_tz	LACR_tx	LACR_ty	LACR_tz	RACR_tx	RACR_ty	RACR_tz	CLAV_tx	CLAV_ty	CLAV_tz	C7_tx	C7_ty	C7_tz	RUA1_tx	RUA1_ty	RUA1_tz	RUA2_tx	RUA2_ty	RUA2_tz	RUA3_tx	RUA3_ty	RUA3_tz	RLEL_tx	RLEL_ty	RLEL_tz	RMEL_tx	RMEL_ty	RMEL_tz	LUA1_tx	LUA1_ty	LUA1_tz	LUA2_tx	LUA2_ty	LUA2_tz	LUA3_tx	LUA3_ty	LUA3_tz	LLEL_tx	LLEL_ty	LLEL_tz	LMEL_tx	LMEL_ty	LMEL_tz	RFAsuperior_tx	RFAsuperior_ty	RFAsuperior_tz	RFAradius_tx	RFAradius_ty	RFAradius_tz	RFAulna_tx	RFAulna_ty	RFAulna_tz	LFAsuperior_tx	LFAsuperior_ty	LFAsuperior_tz	LFAradius_tx	LFAradius_ty	LFAradius_tz	LFAulna_tx	LFAulna_ty	LFAulna_tz
      4.16000000	     -1.07510519	     -1.22982339	     -0.74779136	      0.74258669	      1.00763279	     -0.30377745	     35.38302507	      5.46205706	     -0.72712891	    -41.14644516	      2.25935602	    -24.49005899	      1.76994899	      3.73858719	    -13.32925638	    -16.99967682	    -10.28095972	     -2.39763119	    -12.46563049	    -41.64502315	    -17.10897359	    -10.22628057	     90.83430883	     70.95824070	      0.72484614	    -22.76960006	      0.52084859	    112.72497703	     97.61851833	      0.00000000	      0.00000000	      0.00000000	      0.00000000	      0.00000000	      0.00000000	      0.00000000	      0.00000000	      0.75426595	      1.01878862	     -0.43768870	      0.74322764	      1.03241366	     -0.17899633	      0.57973015	      1.05508363	     -0.36156987	      0.57575924	      1.05133853	     -0.25846841	      0.70950766	      0.84656124	     -0.13167811	      0.83416995	      0.78512911	     -0.14310809	      0.82751816	      0.65733268	     -0.17857869	      0.60905323	      0.84894067	     -0.48733078	      0.62463628	      0.70923033	     -0.46642907	      0.52060041	      0.62617482	     -0.44852276	      0.94092249	      0.44541078	     -0.24071880	      0.90653558	      0.38803218	     -0.18382219	      0.91011700	      0.28193970	     -0.25229459	      0.42059159	      0.40258693	     -0.37956201	      0.32918780	      0.37041807	     -0.44271326	      0.31721089	      0.28512599	     -0.37725681	      0.78813294	      0.15351986	     -0.27343227	      1.01077692	      0.11163635	     -0.27429532	      0.95862118	      0.11914176	     -0.21283312	      0.14880793	      0.26301507	     -0.36654864	      0.27541072	      0.07658388	     -0.33621496	      0.22180324	      0.08932125	     -0.42486962	      0.76087964	      1.48962094	     -0.48535161	      0.69948070	      1.52444438	     -0.16419971	      0.78066135	      1.44644783	     -0.27873739	      0.66413030	      1.52426547	     -0.33783644	      0.60932657	      1.48275398	     -0.09919602	      0.53775802	      1.43515979	     -0.14974469	      0.52388891	      1.38998788	     -0.08531523	      0.44270703	      1.31272013	     -0.06915828	      0.44815565	      1.30164447	     -0.15091231	      0.74601165	      1.39649561	     -0.56761993	      0.69199721	      1.31172750	     -0.55463930	      0.72530799	      1.25075951	     -0.60068294	      0.75057337	      1.16734918	     -0.62009643	      0.70708072	      1.15220466	     -0.55380597	      0.50918915	      1.22970717	     -0.03973835	      0.61937459	      1.11465105	     -0.04619390	      0.55629289	      1.07866281	     -0.05050062	      0.84723093	      1.18589960	     -0.56867100	      0.94782388	      1.21522418	     -0.44407242	      0.96991264	      1.15228369	     -0.47262360
      4.17000000	     -1.44288189	     -1.33475394	     -0.58649693	      0.74523435	      1.01029958	     -0.30363683	     33.66480813	      5.71493793	      0.96069108	    -32.04002657	      2.25325037	    -24.98560350	      1.40318286	      3.06172869	    -14.61832909	    -21.70449116	     -9.54200048	     -2.12120963	    -12.89899476	    -42.62503294	    -16.58817179	    -10.81719634	     91.32242114	     70.92250747	      0.44814139	    -22.81360260	      1.69446784	    114.06098584	     97.79896653	      0.00000000	      0.00000000	      0.00000000	      0.00000000	      0.00000000	      0.00000000	      0.00000000	      0.00000000	      0.75588389	      1.02139997	     -0.43636424	      0.74559694	      1.03578849	     -0.17931281	      0.58133638	      1.05962585	     -0.36173209	      0.58004943	      1.05597964	     -0.25923580	      0.70913084	      0.84940558	     -0.13100609	      0.83354642	      0.78653292	     -0.14506119	      0.82406748	      0.65691716	     -0.17757778	      0.60869100	      0.85343572	     -0.48638278	      0.62124278	      0.71309193	     -0.46662740	      0.51571945	      0.63207905	     -0.44757198	      0.94671025	      0.44435036	     -0.24074770	      0.91929544	      0.38321076	     -0.18300249	      0.93503680	      0.27611461	     -0.25255830	      0.41103721	      0.41051268	     -0.38063923	      0.31838874	      0.38050522	     -0.44348591	      0.30427843	      0.29595055	     -0.37999269	      0.82865333	      0.13570815	     -0.27257210	      1.05489118	      0.12322939	     -0.27656658	      1.00433313	      0.12144532	     -0.20979289	      0.14157504	      0.28580766	     -0.37102285	      0.24482354	      0.08511141	     -0.33856900	      0.19154721	      0.10410163	     -0.42667401	      0.76223355	      1.49358667	     -0.48350559	      0.69903413	      1.52685388	     -0.16332006	      0.78059229	      1.44970396	     -0.27712302	      0.66446574	      1.52710943	     -0.33711001	      0.60811545	      1.48653698	     -0.09960493	      0.53744600	      1.43963418	     -0.15156037	      0.52166688	      1.39439496	     -0.08805670	      0.43971872	      1.31739879	     -0.07333646	      0.44624204	      1.30688548	     -0.15490561	      0.74922145	      1.40130249	     -0.56616471	      0.69488722	      1.31691288	     -0.55531728	      0.72898825	      1.25567855	     -0.60043009	      0.75431628	      1.17210787	     -0.61874545	      0.70936958	      1.15685606	     -0.55411412	      0.50553113	      1.23421957	     -0.04271665	      0.61676410	      1.11924974	     -0.04744176	      0.55375584	      1.08297914	     -0.05294937	      0.84890619	      1.19252107	     -0.56464086	      0.94511640	      1.22393247	     -0.43789229	      0.96951832	      1.16155016	     -0.46488129
      4.18000000	     -1.79444188	     -1.00169868	     -0.32006151	      0.74741876	      1.01169049	     -0.30388421	     31.93850445	      5.26458935	      2.65726333	    -23.69563221	      2.29716282	    -24.70769662	      1.53476065	      3.09585306	    -17.38283673	    -25.64078479	     -8.89976225	     -2.29397525	    -13.27427959	    -43.37129023	    -15.94698753	    -11.49110000	     91.76176786	     71.08505111	      0.32683798	    -23.04390032	      3.09453507	    115.02217376	     98.32620546	      0.00000000	      0.00000000	      0.00000000	      0.00000000	      0.00000000	      0.00000000	      0.00000000	      0.00000000	      0.75667122	      1.02366262	     -0.43553841	      0.74758330	      1.03759630	     -0.17976957	      0.58273046	      1.06337767	     -0.36199068	      0.58283325	      1.06002831	     -0.25960834	      0.70765840	      0.85083622	     -0.13126771	      0.83252947	      0.78590880	     -0.14634075	      0.81993972	      0.65349618	     -0.17534978	      0.60991592	      0.85610210	     -0.48508615	      0.62104860	      0.71532975	     -0.46574695	      0.51531586	      0.63475631	     -0.44637911	      0.95075010	      0.44211081	     -0.24175971	      0.92825983	      0.37862242	     -0.18207987	      0.95567356	      0.27274760	     -0.25261680	      0.40492753	      0.41583447	     -0.38146593	      0.31164588	      0.38883560	     -0.44427498	      0.29295561	      0.30573519	     -0.38191808	      0.86512430	      0.12200960	     -0.27111648	      1.09071949	      0.13890019	     -0.27807012	      1.04284846	      0.12405007	     -0.20596781	      0.13643753	      0.30800665	     -0.37524208	      0.21508579	      0.09614227	     -0.34047037	      0.16296541	      0.12081646	     -0.42796945	      0.76294130	      1.49655298	     -0.48181687	      0.69921919	      1.52817378	     -0.16226563	      0.78094985	      1.45190506	     -0.27572374	      0.66504427	      1.52892706	     -0.33612280	      0.60776410	      1.48891592	     -0.09953473	      0.53806725	      1.44225988	     -0.15275726	      0.52065610	      1.39694879	     -0.09010025	      0.43818416	      1.32019444	     -0.07655855	      0.44587790	      1.30984896	     -0.15775821	      0.75141808	      1.40509713	     -0.56490725	      0.69716307	      1.32084044	     -0.55571211	      0.73214753	      1.25973005	     -0.60050421	      0.75761301	      1.17611023	     -0.61804051	      0.71084011	      1.16055072	     -0.55495908	      0.50366068	      1.23701194	     -0.04487269	      0.61590060	      1.12224666	     -0.04813289	      0.55309980	      1.08561532	     -0.05449430	      0.85018936	      1.19735941	     -0.56127861	      0.94215024	      1.22950737	     -0.43221395	      0.96863389	      1.16785507	     -0.45832800
      4.19000000	     -2.19386975	     -0.29077609	     -0.04226283	      0.74884797	      1.01173869	     -0.30429445	     30.64289162	      4.28316129	      3.78934488	    -16.95167425	      2.31201861	    -23.68650210	      2.19877189	      4.00158342	    -21.49007002	    -28.38100459	     -8.33319039	     -2.87355742	    -13.50009925	    -43.79685400	    -15.23635384	    -12.14945182	     92.10761556	     71.34384389	      0.35210417	    -23.43621012	      4.61360081	    115.59983687	     98.97910212	      0.00000000	      0.00000000	      0.00000000	      0.00000000	      0.00000000	      0.00000000	      0.00000000	      0.00000000	      0.75691685	      1.02566883	     -0.43503218	      0.74908176	      1.03801163	     -0.18014491	      0.58408596	      1.06622715	     -0.36210946	      0.58409076	      1.06310999	     -0.25935383	      0.70518902	      0.85005981	     -0.13230439	      0.83051465	      0.78271553	     -0.14657577	      0.81454374	      0.64777186	     -0.17339600	      0.61198929	      0.85645248	     -0.48374022	      0.62414172	      0.71550092	     -0.46390763	      0.51943174	      0.63415228	     -0.44532713	      0.95317513	      0.43933826	     -0.24284298	      0.93401531	      0.37485388	     -0.18141672	      0.97089509	      0.27180327	     -0.25257000	      0.40201585	      0.41858437	     -0.38200020	      0.30871239	      0.39645347	     -0.44572038	      0.28330382	      0.31514043	     -0.38337460	      0.89476235	      0.11258855	     -0.27002270	      1.11642989	      0.15494286	     -0.27932736	      1.07272037	      0.12613509	     -0.20218569	      0.13178613	      0.32954049	     -0.37926895	      0.18704772	      0.11033592	     -0.34142802	      0.13756743	      0.13903576	     -0.42878831	      0.76328141	      1.49837317	     -0.48027334	      0.70008092	      1.52839213	     -0.16097154	      0.78170061	      1.45291686	     -0.27454662	      0.66588415	      1.52965860	     -0.33487227	      0.60835558	      1.48972957	     -0.09884503	      0.53950063	      1.44295822	     -0.15308316	      0.52092232	      1.39753226	     -0.09121979	      0.43812831	      1.32097318	     -0.07855103	      0.44741577	      1.31036346	     -0.15925317	      0.75258874	      1.40763877	     -0.56390650	      0.69871443	      1.32340068	     -0.55575634	      0.73463217	      1.26268702	     -0.60082789	      0.76039156	      1.17908579	     -0.61813069	      0.71126391	      1.16309216	     -0.55612404	      0.50368563	      1.23796320	     -0.04605388	      0.61680336	      1.12356487	     -0.04825886	      0.55433204	      1.08652184	     -0.05519940	      0.85112848	      1.20012987	     -0.55872087	      0.93924743	      1.23195626	     -0.42724448	      0.96738873	      1.17093483	     -0.45308988
